<?xml version="1.0" encoding="UTF-8"?>
<svg xmlns="http://www.w3.org/2000/svg" xmlns:xlink="http://www.w3.org/1999/xlink" width="55px" height="38px" viewBox="0 0 55 38" version="1.1">
<g id="surface1">
<path style=" stroke:none;fill-rule:nonzero;fill:rgb(15.294118%,66.666667%,88.235294%);fill-opacity:1;" d="M 37.570312 4.003906 C 35.882812 3.167969 33.917969 2.609375 31.855469 2.609375 L 20.800781 2.609375 L 20.800781 29.339844 L 31.855469 29.339844 C 33.917969 29.339844 35.882812 28.78125 37.570312 27.941406 C 41.972656 25.707031 44.972656 21.234375 44.972656 16.019531 C 44.972656 10.710938 41.972656 6.148438 37.570312 4.003906 Z M 31.855469 25.332031 C 31.761719 25.332031 31.667969 25.332031 31.574219 25.332031 C 31.480469 25.332031 31.386719 25.332031 31.292969 25.332031 L 24.738281 25.332031 L 24.738281 6.519531 L 31.292969 6.519531 C 31.386719 6.519531 31.480469 6.519531 31.574219 6.519531 C 31.667969 6.519531 31.761719 6.519531 31.855469 6.519531 C 37.007812 6.613281 41.035156 10.804688 41.035156 15.925781 C 41.035156 21.050781 36.914062 25.148438 31.855469 25.332031 Z M 31.855469 25.332031 "/>
<path style=" stroke:none;fill-rule:nonzero;fill:rgb(34.509804%,34.901961%,35.686275%);fill-opacity:1;" d="M 46.1875 6.519531 L 54.433594 6.519531 L 54.433594 2.515625 L 42.628906 2.515625 C 44.035156 3.632812 45.25 5.03125 46.1875 6.519531 Z M 14.714844 2.515625 L 10.777344 2.515625 L 10.777344 29.246094 L 14.714844 29.246094 Z M 54.433594 25.332031 L 46.1875 25.332031 C 45.25 26.824219 44.035156 28.128906 42.628906 29.246094 L 54.339844 29.246094 L 54.339844 25.332031 Z M 4.597656 2.515625 L 0.660156 2.515625 L 0.660156 29.246094 L 4.597656 29.246094 Z M 54.433594 17.882812 L 54.433594 13.96875 L 48.90625 13.96875 C 49 14.621094 49 15.273438 49 15.925781 C 49 16.578125 49 17.230469 48.90625 17.882812 Z M 14.527344 32.503906 C 14.246094 32.410156 13.964844 32.320312 13.683594 32.320312 L 12.183594 32.320312 L 12.183594 35.390625 L 13.589844 35.390625 C 13.871094 35.390625 14.246094 35.300781 14.433594 35.207031 C 14.714844 35.113281 14.902344 34.925781 14.992188 34.648438 C 15.085938 34.460938 15.179688 34.179688 15.179688 33.808594 C 15.179688 33.53125 15.085938 33.25 14.992188 32.96875 C 14.902344 32.785156 14.714844 32.691406 14.527344 32.503906 Z M 14.246094 34.460938 C 14.058594 34.648438 13.871094 34.648438 13.589844 34.648438 L 13.027344 34.648438 L 13.027344 32.96875 L 13.589844 32.96875 C 13.871094 32.96875 14.058594 33.0625 14.246094 33.15625 C 14.433594 33.34375 14.527344 33.53125 14.527344 33.808594 C 14.433594 34.089844 14.433594 34.273438 14.246094 34.460938 Z M 16.117188 35.390625 L 16.867188 35.390625 L 16.867188 32.410156 L 16.023438 32.410156 L 16.023438 35.390625 Z M 5.625 33.4375 L 4.410156 33.4375 L 4.410156 32.320312 L 3.660156 32.320312 L 3.660156 35.390625 L 4.503906 35.390625 L 4.503906 34.179688 L 5.625 34.179688 L 5.625 35.390625 L 6.46875 35.390625 L 6.46875 32.410156 L 5.625 32.410156 Z M 8.25 34.179688 L 9.5625 34.179688 L 9.5625 33.53125 L 8.25 33.53125 L 8.25 33.0625 L 9.75 33.0625 L 9.75 32.410156 L 7.40625 32.410156 L 7.40625 35.390625 L 9.75 35.390625 L 9.75 34.738281 L 8.25 34.738281 Z M 0.285156 32.96875 L 1.222656 32.96875 L 1.222656 35.390625 L 2.066406 35.390625 L 2.066406 33.0625 L 3.003906 33.0625 L 3.003906 32.410156 L 0.285156 32.410156 Z M 38.320312 33.0625 C 38.414062 32.96875 38.601562 32.96875 38.789062 32.96875 C 39.070312 32.96875 39.257812 33.0625 39.445312 33.25 L 39.445312 33.34375 L 40.007812 32.878906 C 39.820312 32.691406 39.726562 32.597656 39.445312 32.503906 C 39.257812 32.410156 38.976562 32.410156 38.695312 32.410156 C 38.414062 32.410156 38.132812 32.503906 37.851562 32.597656 C 37.570312 32.691406 37.382812 32.878906 37.289062 33.15625 C 37.101562 33.4375 37.101562 33.621094 37.101562 33.996094 C 37.101562 34.273438 37.195312 34.554688 37.289062 34.832031 C 37.476562 35.113281 37.664062 35.300781 37.851562 35.390625 C 38.132812 35.484375 38.414062 35.578125 38.695312 35.578125 C 38.976562 35.578125 39.164062 35.578125 39.445312 35.484375 C 39.632812 35.390625 39.820312 35.300781 40.007812 35.113281 L 39.445312 34.648438 L 39.445312 34.738281 C 39.257812 34.925781 39.070312 35.019531 38.789062 35.019531 C 38.601562 35.019531 38.507812 35.019531 38.320312 34.925781 C 38.226562 34.832031 38.132812 34.738281 38.039062 34.648438 C 37.945312 34.554688 37.945312 34.367188 37.945312 34.179688 C 37.945312 33.996094 37.945312 33.902344 38.039062 33.714844 C 38.132812 33.25 38.226562 33.15625 38.320312 33.0625 Z M 35.976562 33.714844 C 35.789062 33.621094 35.601562 33.621094 35.414062 33.53125 C 35.226562 33.53125 35.042969 33.4375 34.949219 33.4375 C 34.855469 33.4375 34.855469 33.34375 34.855469 33.25 C 34.855469 33.15625 34.855469 33.15625 34.949219 33.0625 C 35.042969 32.96875 35.132812 32.96875 35.320312 32.96875 C 35.601562 32.96875 35.882812 33.0625 36.070312 33.15625 L 36.164062 33.15625 L 36.445312 32.503906 C 36.351562 32.410156 36.164062 32.320312 35.976562 32.320312 C 35.789062 32.320312 35.601562 32.226562 35.414062 32.226562 C 35.132812 32.226562 34.949219 32.226562 34.761719 32.320312 C 34.574219 32.410156 34.386719 32.503906 34.292969 32.691406 C 34.199219 32.878906 34.105469 32.96875 34.105469 33.15625 C 34.105469 33.34375 34.199219 33.53125 34.292969 33.621094 C 34.386719 33.714844 34.574219 33.808594 34.667969 33.902344 C 34.855469 33.996094 35.042969 33.996094 35.226562 34.089844 C 35.414062 34.089844 35.507812 34.179688 35.601562 34.179688 C 35.695312 34.179688 35.695312 34.273438 35.789062 34.273438 C 35.789062 34.273438 35.882812 34.367188 35.882812 34.367188 C 35.882812 34.460938 35.882812 34.460938 35.789062 34.554688 C 35.695312 34.648438 35.601562 34.648438 35.414062 34.648438 C 35.226562 34.648438 35.042969 34.648438 34.949219 34.554688 C 34.761719 34.460938 34.667969 34.460938 34.480469 34.367188 L 34.386719 34.367188 L 34.105469 35.019531 C 34.199219 35.113281 34.386719 35.207031 34.667969 35.300781 C 34.855469 35.390625 35.132812 35.390625 35.320312 35.390625 C 35.601562 35.390625 35.789062 35.390625 36.070312 35.300781 C 36.257812 35.207031 36.445312 35.113281 36.539062 34.925781 C 36.539062 34.832031 36.539062 34.648438 36.539062 34.460938 C 36.539062 34.273438 36.445312 34.089844 36.351562 33.996094 C 36.257812 33.808594 36.164062 33.714844 35.976562 33.714844 Z M 46.84375 32.503906 C 46.5625 32.410156 46.28125 32.320312 46 32.320312 C 45.71875 32.320312 45.4375 32.410156 45.15625 32.503906 C 44.878906 32.597656 44.691406 32.785156 44.597656 33.0625 C 44.410156 33.34375 44.410156 33.53125 44.410156 33.902344 C 44.410156 34.273438 44.503906 34.460938 44.597656 34.738281 C 44.785156 35.019531 44.972656 35.207031 45.15625 35.300781 C 45.4375 35.390625 45.71875 35.484375 46 35.484375 C 46.28125 35.484375 46.5625 35.390625 46.84375 35.300781 C 47.125 35.207031 47.3125 35.019531 47.40625 34.738281 C 47.59375 34.460938 47.59375 34.273438 47.59375 33.902344 C 47.59375 33.621094 47.5 33.34375 47.40625 33.0625 C 47.3125 32.785156 47.125 32.597656 46.84375 32.503906 Z M 46.75 34.273438 C 46.65625 34.367188 46.5625 34.460938 46.46875 34.554688 C 46.375 34.648438 46.1875 34.648438 46 34.648438 C 45.8125 34.648438 45.71875 34.648438 45.53125 34.554688 C 45.4375 34.460938 45.34375 34.367188 45.25 34.273438 C 45.15625 34.179688 45.15625 33.996094 45.15625 33.808594 C 45.15625 33.621094 45.15625 33.53125 45.25 33.34375 C 45.34375 33.25 45.4375 33.15625 45.53125 33.0625 C 45.625 32.96875 45.8125 32.96875 46 32.96875 C 46.1875 32.96875 46.28125 32.96875 46.46875 33.0625 C 46.5625 33.15625 46.65625 33.25 46.75 33.34375 C 46.84375 33.53125 46.84375 33.714844 46.84375 33.808594 C 46.84375 33.902344 46.84375 34.179688 46.75 34.273438 Z M 18.929688 33.0625 C 19.023438 32.96875 19.210938 32.96875 19.398438 32.96875 C 19.679688 32.96875 19.867188 33.0625 20.144531 33.25 L 20.707031 32.785156 C 20.519531 32.597656 20.332031 32.503906 20.144531 32.410156 C 19.957031 32.320312 19.679688 32.320312 19.398438 32.320312 C 19.117188 32.320312 18.835938 32.410156 18.554688 32.503906 C 18.273438 32.597656 18.085938 32.785156 17.992188 33.0625 C 17.804688 33.34375 17.804688 33.53125 17.804688 33.902344 C 17.804688 34.179688 17.898438 34.460938 17.992188 34.738281 C 18.179688 35.019531 18.367188 35.207031 18.554688 35.300781 C 18.835938 35.390625 19.117188 35.484375 19.398438 35.484375 C 19.585938 35.484375 19.867188 35.484375 20.050781 35.390625 C 20.238281 35.300781 20.425781 35.207031 20.613281 35.113281 L 20.613281 33.808594 L 19.867188 33.808594 L 19.867188 34.648438 C 19.773438 34.738281 19.585938 34.738281 19.398438 34.738281 C 19.210938 34.738281 19.117188 34.738281 18.929688 34.648438 C 18.835938 34.554688 18.648438 34.460938 18.648438 34.367188 C 18.554688 34.273438 18.554688 34.089844 18.554688 33.902344 C 18.554688 33.714844 18.554688 33.621094 18.648438 33.4375 C 18.648438 33.25 18.742188 33.15625 18.929688 33.0625 Z M 50.777344 32.503906 C 50.496094 32.410156 50.214844 32.320312 49.9375 32.320312 C 49.65625 32.320312 49.375 32.410156 49.09375 32.503906 C 48.8125 32.597656 48.625 32.785156 48.53125 33.0625 C 48.34375 33.34375 48.34375 33.53125 48.34375 33.902344 C 48.34375 34.273438 48.4375 34.460938 48.53125 34.738281 C 48.71875 35.019531 48.90625 35.207031 49.09375 35.300781 C 49.375 35.390625 49.65625 35.484375 49.9375 35.484375 C 50.214844 35.484375 50.496094 35.390625 50.777344 35.300781 C 51.058594 35.207031 51.246094 35.019531 51.339844 34.738281 C 51.527344 34.460938 51.527344 34.273438 51.527344 33.902344 C 51.527344 33.53125 51.433594 33.34375 51.339844 33.0625 C 51.246094 32.785156 51.058594 32.597656 50.777344 32.503906 Z M 50.683594 34.273438 C 50.589844 34.367188 50.496094 34.460938 50.402344 34.554688 C 50.308594 34.648438 50.125 34.648438 49.9375 34.648438 C 49.75 34.648438 49.65625 34.648438 49.46875 34.554688 C 49.375 34.460938 49.28125 34.367188 49.1875 34.273438 C 49.09375 34.179688 49.09375 33.996094 49.09375 33.808594 C 49.09375 33.621094 49.09375 33.53125 49.1875 33.34375 C 49.28125 33.25 49.375 33.15625 49.46875 33.0625 C 49.5625 32.96875 49.75 32.96875 49.9375 32.96875 C 50.125 32.96875 50.214844 32.96875 50.402344 33.0625 C 50.496094 33.15625 50.589844 33.25 50.683594 33.34375 C 50.777344 33.4375 50.777344 33.621094 50.777344 33.808594 C 50.777344 33.996094 50.777344 34.179688 50.683594 34.273438 Z M 53.214844 34.648438 L 53.214844 32.320312 L 52.371094 32.320312 L 52.371094 35.390625 L 54.621094 35.390625 L 54.621094 34.738281 L 53.214844 34.738281 Z M 42.722656 33.4375 L 41.503906 33.4375 L 41.503906 32.320312 L 40.660156 32.320312 L 40.660156 35.390625 L 41.503906 35.390625 L 41.503906 34.179688 L 42.722656 34.179688 L 42.722656 35.390625 L 43.566406 35.390625 L 43.566406 32.410156 L 42.722656 32.410156 Z M 22.957031 32.96875 L 23.894531 32.96875 L 23.894531 35.390625 L 24.738281 35.390625 L 24.738281 33.0625 L 25.671875 33.0625 L 25.671875 32.410156 L 23.050781 32.410156 L 23.050781 32.96875 Z M 30.542969 32.320312 L 29.703125 32.320312 L 29.703125 35.390625 L 31.949219 35.390625 L 31.949219 34.738281 L 30.449219 34.738281 L 30.449219 32.320312 Z M 21.457031 35.390625 L 22.300781 35.390625 L 22.300781 32.410156 L 21.457031 32.410156 Z M 27.078125 32.320312 L 25.671875 35.390625 L 26.515625 35.390625 L 26.796875 34.738281 L 28.109375 34.738281 L 28.390625 35.390625 L 29.234375 35.390625 L 27.828125 32.410156 L 27.078125 32.410156 Z M 27.078125 34.089844 L 27.453125 33.25 L 27.828125 34.089844 Z M 27.078125 34.089844 "/>
</g>
</svg>
